<?xml version="1.0" standalone="no"?>
<!DOCTYPE svg PUBLIC "-//W3C//DTD SVG 20010904//EN"
 "http://www.w3.org/TR/2001/REC-SVG-20010904/DTD/svg10.dtd">
<svg version="1.0" xmlns="http://www.w3.org/2000/svg"
 width="966.000000pt" height="966.000000pt" viewBox="0 0 966.000000 966.000000"
 preserveAspectRatio="xMidYMid meet">

<g transform="translate(0.000000,966.000000) scale(0.100000,-0.100000)"
fill="#F2F2F2" stroke="none">
<path d="M1585 8918 c-693 -341 -1326 -652 -1408 -691 l-147 -70 2 -481 3
-480 217 -130 c120 -71 218 -133 218 -136 0 -4 -99 -64 -220 -134 l-220 -128
2 -836 3 -836 218 -130 c119 -71 217 -133 217 -136 0 -4 -99 -64 -220 -134
l-220 -128 0 -762 0 -761 158 -96 c86 -53 225 -138 307 -189 248 -153 2533
-1541 3070 -1865 275 -166 664 -401 865 -523 293 -178 372 -222 400 -222 28 0
107 44 400 222 201 122 590 357 865 523 537 324 2822 1712 3070 1865 83 51
221 136 307 189 l158 96 0 761 0 762 -220 128 c-121 70 -220 130 -220 134 0 3
98 65 218 136 l217 130 3 836 2 836 -220 128 c-121 70 -220 130 -220 134 0 3
98 65 218 136 l217 130 3 480 2 480 -167 81 c-93 45 -728 356 -1412 692
l-1244 611 -214 -2 -214 -3 1118 -663 c615 -365 1206 -716 1313 -781 l195
-117 2 -94 3 -95 -1473 -893 c-809 -491 -1636 -994 -1837 -1117 -686 -419
-861 -525 -870 -525 -9 0 -184 106 -870 525 -201 123 -1028 626 -1837 1117
l-1473 893 3 95 2 94 190 114 c105 63 683 407 1285 764 602 357 1109 658 1125
669 l30 19 -220 -1 -220 -1 -1260 -620z m227 -2799 c615 -374 1194 -726 1286
-782 92 -57 253 -155 357 -217 233 -139 1017 -614 1217 -739 81 -50 152 -91
158 -91 6 0 77 41 158 91 200 125 984 600 1217 739 105 62 265 160 357 217
210 129 2397 1456 2426 1472 l22 12 0 -618 -1 -618 -147 -89 c-808 -490 -2847
-1728 -3165 -1922 -738 -451 -858 -524 -867 -524 -9 0 -129 73 -867 524 -318
194 -2357 1432 -3165 1922 l-147 89 -1 618 0 618 22 -12 c12 -6 525 -317 1140
-690z m373 -2426 c1919 -1164 2311 -1402 2487 -1512 81 -50 152 -91 158 -91 6
0 77 41 158 91 81 50 345 212 587 359 767 466 3358 2037 3397 2060 l38 22 0
-549 -1 -548 -292 -176 c-337 -203 -2600 -1579 -3065 -1863 -701 -429 -813
-496 -822 -496 -9 0 -121 67 -822 496 -465 284 -2728 1660 -3065 1863 l-292
176 -1 548 0 549 38 -22 c20 -12 694 -420 1497 -907z"/>
<path d="M4690 9529 c-206 -18 -380 -70 -578 -174 -144 -75 -249 -153 -372
-275 -212 -213 -357 -474 -419 -761 -167 -774 264 -1541 1014 -1802 313 -109
677 -109 990 0 673 234 1101 883 1044 1584 -18 223 -67 397 -166 591 -76 150
-160 265 -283 388 -123 122 -228 200 -372 275 -205 107 -366 155 -593 174
-132 12 -129 12 -265 0z m-190 -380 c230 -102 186 -426 -88 -648 -280 -227
-632 -182 -659 84 -16 153 110 365 285 481 158 105 338 137 462 83z"/>
</g>
</svg>
